<?xml version="1.0" encoding="windows-1252"?>
<!-- Generator: Adobe Illustrator 16.0.4, SVG Export Plug-In . SVG Version: 6.00 Build 0)  -->
<!DOCTYPE svg PUBLIC "-//W3C//DTD SVG 1.1//EN" "http://www.w3.org/Graphics/SVG/1.1/DTD/svg11.dtd">
<svg version="1.1" id="Layer_1" xmlns="http://www.w3.org/2000/svg" xmlns:xlink="http://www.w3.org/1999/xlink" x="0px" y="0px" width="300px" height="29px" viewBox="4985.5 484.6 300 29" style="enable-background:new 4985.5 484.6 300 29;" xml:space="preserve">
<path d="M4997.9,513.5c4,0,6.9-1.4,9.4-3.7l-1.9-2.1c-2.1,1.9-4.3,3.2-7.3,3.2c-5.4,0-9.6-4.7-9.6-11.7V499c0-6.8,4.2-11.6,9.6-11.6  c3,0,5.2,1.3,7.1,3l1.9-2.3c-2.3-2-4.9-3.3-9-3.3c-7.4,0-12.6,5.7-12.6,14.3v0.2C4985.5,507.9,4990.6,513.5,4997.9,513.5  L4997.9,513.5L4997.9,513.5z"/>
<path d="M5012.1,513.4h2.9v-13.7h14.2v13.7h2.9v-28.6h-2.9V497H5015v-12.2h-2.9V513.4z"/>
<path d="M5038.6,513.4h3.1l2.8-7.6h12.8l2.8,7.6h3.3l-10.9-28.6h-3L5038.6,513.4L5038.6,513.4z M5045.5,503l5.4-14.3l5.4,14.3  H5045.5z"/>
<path d="M5068.2,513.4h2.9v-10.6h5.9c6.7,0,11.3-3.3,11.3-9.2v-0.1c0-5.5-3.9-8.9-10.8-8.9h-9.3V513.4z M5071.2,500v-12.5h6.1  c4.9,0,8.1,2.1,8.1,6.2v0c0,3.8-3.2,6.3-8.2,6.3H5071.2L5071.2,500z"/>
<path d="M5097.9,513.4h2.9v-26h8.3v-2.7h-19.5v2.7h8.3V513.4L5097.9,513.4z"/>
<path d="M5115.1,513.6h18v-2.8h-15v-11h13.3V497H5118v-9.5h14.8v-2.8h-17.8V513.6L5115.1,513.6z"/>
<path d="M5138.5,513.4h2.9v-10.6h6.9l7.6,10.6h3.6l-7.8-11.2c4.2-1,6.9-3.8,6.9-8.6v-0.1c0-2.5-0.8-4.7-2.1-6.2  c-1.6-1.7-4.4-2.7-7.9-2.7h-10V513.4L5138.5,513.4z M5141.4,500v-12.5h6.9c4.6,0,7.3,2.2,7.3,6.2v0.1c0,3.8-2.7,6.3-7.7,6.3H5141.4  L5141.4,500z"/>
<path d="M5169.7,513.4h6v-23.2h7.4v-5.6h-20.8v5.6h7.4V513.4z"/>
<path d="M5188.4,513.4h6v-12.3h9.6v12.3h6v-28.6h-6v10.7h-9.6v-10.7h-6V513.4z"/>
<path d="M5216.5,513.4h6v-9.2h4l5.6,9.2h6.8l-6.1-10.5c3.2-1.5,5.3-4.4,5.3-8.6v-0.2c0-2.7-0.9-5-2.4-6.6c-1.8-1.9-4.5-2.9-8.1-2.9  h-11.1V513.4L5216.5,513.4z M5222.5,498.6v-8.4h4.5c3.2,0,5.1,1.4,5.1,4.2v0c0,2.5-1.7,4.2-5,4.2H5222.5L5222.5,498.6z"/>
<path d="M5243.1,513.6h19.1V508h-13.1v-6.9h11.4v-5.6h-11.4v-5.4h12.9v-5.6h-18.9V513.6L5243.1,513.6z"/>
<path d="M5266.5,513.6h19.1V508h-13.1v-6.9h11.4v-5.6h-11.4v-5.4h12.9v-5.6h-18.9V513.6L5266.5,513.6z"/>
</svg>